HIERARCHY
ROOT Hips
{
	OFFSET -0.001795 -0.223333 0.028219
	CHANNELS 6 Xposition Yposition Zposition Zrotation Yrotation Xrotation 
	JOINT LeftUpLeg
	{
		OFFSET 0.069520 -0.091406 -0.006815
		CHANNELS 3 Zrotation Yrotation Xrotation
		JOINT LeftLeg
		{
			OFFSET 0.034277 -0.375199 -0.004496
			CHANNELS 3 Zrotation Yrotation Xrotation
			JOINT LeftFoot
			{
				OFFSET -0.013596 -0.397961 -0.043693
				CHANNELS 3 Zrotation Yrotation Xrotation
				JOINT LeftToe
				{
					OFFSET 0.026358 -0.055791 0.119288
					CHANNELS 3 Zrotation Yrotation Xrotation
					End Site
					{
						OFFSET 0.000000 0.000000 0.000000
					}
				}
			}
		}
	}
	JOINT RightUpLeg
	{
		OFFSET -0.067670 -0.090522 -0.004320
		CHANNELS 3 Zrotation Yrotation Xrotation
		JOINT RightLeg
		{
			OFFSET -0.038290 -0.382569 -0.008850
			CHANNELS 3 Zrotation Yrotation Xrotation
			JOINT RightFoot
			{
				OFFSET 0.015774 -0.398415 -0.042312
				CHANNELS 3 Zrotation Yrotation Xrotation
				JOINT RightToe
				{
					OFFSET -0.025372 -0.048144 0.123348
					CHANNELS 3 Zrotation Yrotation Xrotation
					End Site
					{
						OFFSET 0.000000 0.000000 0.000000
					}
				}
			}
		}
	}
	JOINT Spine
	{
		OFFSET -0.002533 0.108963 -0.026696
		CHANNELS 3 Zrotation Yrotation Xrotation
		JOINT Spine1
		{
			OFFSET 0.005487 0.135180 0.001092
			CHANNELS 3 Zrotation Yrotation Xrotation
			JOINT Spine2
			{
				OFFSET 0.001457 0.052922 0.025425
				CHANNELS 3 Zrotation Yrotation Xrotation
				JOINT Neck
				{
					OFFSET -0.002778 0.213870 -0.042857
					CHANNELS 3 Zrotation Yrotation Xrotation
					JOINT Head
					{
						OFFSET 0.005152 0.064970 0.051349
						CHANNELS 3 Zrotation Yrotation Xrotation
						End Site
						{
							OFFSET 0.000000 0.000000 0.000000
						}
					}
				}
				JOINT LeftShoulder
				{
					OFFSET 0.078845 0.121749 -0.034090
					CHANNELS 3 Zrotation Yrotation Xrotation
					JOINT LeftArm
					{
						OFFSET 0.090977 0.030469 -0.008868
						CHANNELS 3 Zrotation Yrotation Xrotation
						JOINT LeftForeArm
						{
							OFFSET 0.259612 -0.012772 -0.027456
							CHANNELS 3 Zrotation Yrotation Xrotation
							JOINT LeftHand
							{
								OFFSET 0.249234 0.008986 -0.001171
								CHANNELS 3 Zrotation Yrotation Xrotation
								End Site
								{
									OFFSET 0.000000 0.000000 0.000000
								}
							}
						}
					}
				}
				JOINT RightShoulder
				{
					OFFSET -0.081759 0.118833 -0.038615
					CHANNELS 3 Zrotation Yrotation Xrotation
					JOINT RightArm
					{
						OFFSET -0.096012 0.032551 -0.009143
						CHANNELS 3 Zrotation Yrotation Xrotation
						JOINT RightForeArm
						{
							OFFSET -0.253742 -0.013329 -0.021401
							CHANNELS 3 Zrotation Yrotation Xrotation
							JOINT RightHand
							{
								OFFSET -0.255298 0.007772 -0.005559
								CHANNELS 3 Zrotation Yrotation Xrotation
								End Site
								{
									OFFSET 0.000000 0.000000 0.000000
								}
							}
						}
					}
				}
			}
		}
	}
}
MOTION
Frames: 13
Frame Time: 0.050000
0.000000 0.939565 0.000000 0.054750 8.048395 4.000140 3.141962 -0.225204 -1.860336 -0.380574 0.094179 -1.925116 1.722505 6.115061 5.781249 0.000000 0.000000 0.000000 -3.638664 0.347707 -4.149762 -0.498821 0.122245 1.614908 -0.780240 -3.576649 5.049554 0.000000 0.000000 0.000000 5.530557 0.296676 -5.322808 -0.534302 0.476453 -5.278736 -3.731888 4.671775 9.647943 5.934493 -2.324589 -11.489797 0.000000 0.000000 0.000000 -7.186838 -6.061006 0.861996 -52.568472 -6.706275 -4.057281 -19.876367 -36.127707 6.867070 0.000000 0.000000 0.000000 10.273234 -1.853497 -0.450053 60.946896 1.126715 -5.118003 9.136089 27.888639 3.738105 0.000000 0.000000 0.000000 
-0.000759 0.939436 -0.000143 -0.253145 7.591894 4.354388 3.610224 -0.215357 -1.461806 -0.623811 0.143962 -3.096903 2.546117 7.584310 5.854288 0.000000 0.000000 0.000000 -3.757476 0.402097 -4.905421 -0.035404 0.075376 2.060851 -0.188417 -2.419785 5.570649 0.000000 0.000000 0.000000 6.426862 0.355213 -5.903725 -0.805167 0.577103 -5.152956 -3.890841 5.196460 9.527779 5.904887 -2.142231 -12.175509 0.000000 0.000000 0.000000 -7.132763 -7.163016 1.263648 -51.338884 -8.800600 -3.009102 -21.823838 -39.009274 8.043034 0.000000 0.000000 0.000000 9.201089 -2.504302 -0.757164 62.127360 0.600292 -5.267085 9.660505 26.655950 3.660892 0.000000 0.000000 0.000000 
-0.001379 0.939667 -0.000664 0.022689 7.609188 4.079881 3.382264 -0.187990 -1.139373 -0.768646 0.150286 -2.970878 2.276764 7.018594 5.621095 0.000000 0.000000 0.000000 -4.265305 0.384770 -4.949465 0.340756 0.046506 2.855574 -0.205481 -2.240331 4.875775 0.000000 0.000000 0.000000 6.061568 0.321523 -5.506571 0.133566 0.280703 -7.364702 -4.811082 5.109243 11.311556 5.159938 -1.378322 -13.608740 0.000000 0.000000 0.000000 -5.702421 -7.682523 1.665909 -51.527616 -13.232375 -1.396796 -24.849403 -42.284626 9.904536 0.000000 0.000000 0.000000 9.401647 -1.648995 -0.295969 62.196220 0.588686 -5.497095 9.730537 26.582118 3.696106 0.000000 0.000000 0.000000 
-0.001717 0.939557 -0.001202 -0.027781 8.472947 4.154543 3.683300 -0.232381 -1.665997 -1.057674 0.163831 -2.843440 2.515656 7.551017 5.797016 0.000000 0.000000 0.000000 -4.172736 0.375037 -4.840483 0.559362 0.000631 2.440820 -0.121869 -2.057989 5.101875 0.000000 0.000000 0.000000 5.860729 0.401813 -6.688271 0.301433 0.172049 -6.108520 -4.597200 3.878563 10.408576 4.855539 -1.539771 -11.939312 0.000000 0.000000 0.000000 -5.225336 -8.547380 2.109311 -50.843145 -17.382548 0.457112 -26.282784 -47.016940 11.842013 0.000000 0.000000 0.000000 8.507808 -1.599020 -0.404374 62.032936 -0.116649 -5.747185 10.409595 26.414375 3.759459 0.000000 0.000000 0.000000 
-0.002052 0.939815 -0.001993 0.142096 8.814020 3.951668 3.539639 -0.227943 -1.658493 -1.103310 0.168424 -2.958267 2.035336 6.729437 5.834204 0.000000 0.000000 0.000000 -4.541132 0.329546 -4.368283 0.845955 -0.045675 2.290744 -0.424156 -2.713834 5.055728 0.000000 0.000000 0.000000 5.248814 0.362326 -6.367327 1.192823 -0.158448 -6.644463 -5.218824 3.400485 10.160877 4.626996 -1.482354 -11.451251 0.000000 0.000000 0.000000 -3.519700 -10.303027 2.939862 -48.987798 -23.725620 2.927879 -27.328426 -52.562663 13.955155 0.000000 0.000000 0.000000 8.910412 -1.789885 -0.507034 61.275148 -0.609258 -5.974119 11.372054 27.216768 4.116323 0.000000 0.000000 0.000000 
-0.002236 0.940607 -0.003046 -0.109628 8.752959 3.852546 3.647550 -0.245899 -1.941059 -0.794764 0.144761 -2.775082 2.457654 7.594676 6.148675 0.000000 0.000000 0.000000 -4.205641 0.348728 -4.512159 0.514481 0.003617 2.343189 -0.383232 -2.756738 5.514226 0.000000 0.000000 0.000000 5.069481 0.355339 -6.303515 1.724934 -0.385306 -6.499649 -5.061714 1.885415 9.845503 4.122647 -1.412238 -10.655465 0.000000 0.000000 0.000000 -2.908791 -11.775673 3.618990 -46.683134 -30.310548 5.371272 -23.246740 -58.213198 13.846884 0.000000 0.000000 0.000000 8.759979 -0.807150 -0.226646 61.108932 -0.540678 -6.056803 10.798664 27.161063 3.876603 0.000000 0.000000 0.000000 
-0.002396 0.941287 -0.004384 -0.052786 8.476673 3.686898 3.396340 -0.264255 -2.415292 -0.737717 0.128382 -2.246412 2.238315 7.326177 6.492163 0.000000 0.000000 0.000000 -4.331417 0.353348 -4.650876 0.448441 0.023631 2.698090 -0.218905 -2.425026 5.570300 0.000000 0.000000 0.000000 4.547789 0.318186 -5.880919 1.982425 -0.485489 -6.650666 -5.318555 0.663611 9.394774 3.456575 -1.116574 -10.322629 0.000000 0.000000 0.000000 -0.721410 -13.790126 4.471430 -43.572625 -37.806498 7.690608 -10.087956 -61.045143 7.231448 0.000000 0.000000 0.000000 9.626815 0.428160 0.184290 60.560385 -0.871298 -6.317221 10.263845 27.199270 3.663573 0.000000 0.000000 0.000000 
-0.002413 0.942261 -0.005763 -0.227447 8.153721 3.636388 3.397528 -0.286116 -2.816321 -0.757744 0.125787 -2.065074 2.536445 7.896763 6.668851 0.000000 0.000000 0.000000 -3.953945 0.396463 -5.111999 -0.102286 0.125782 3.365050 0.109168 -1.644086 5.372825 0.000000 0.000000 0.000000 3.911327 0.277214 -5.427171 2.800622 -0.813163 -6.839425 -5.467865 -0.793706 9.052282 2.938385 -0.989427 -9.608360 0.000000 0.000000 0.000000 1.299981 -15.948081 5.233665 -37.808658 -46.099450 9.134456 6.177235 -58.658317 -1.795968 0.000000 0.000000 0.000000 9.923857 1.592709 0.516471 60.017529 -0.516933 -6.208505 9.685341 26.418853 3.313886 0.000000 0.000000 0.000000 
-0.002178 0.942999 -0.006819 -0.532614 7.691810 3.733808 3.388967 -0.309557 -3.232560 -0.399272 0.094445 -1.873052 2.508890 7.839366 6.699721 0.000000 0.000000 0.000000 -3.640772 0.428658 -5.369063 -0.515837 0.191701 3.442824 0.381802 -1.209143 5.816141 0.000000 0.000000 0.000000 3.528572 0.250333 -5.093974 3.244267 -0.961045 -7.408255 -5.357527 -2.213782 8.924745 2.237127 -0.627295 -9.687863 0.000000 0.000000 0.000000 4.512123 -17.720214 5.667031 -30.358878 -54.846747 9.153850 16.431615 -49.929165 -5.928315 0.000000 0.000000 0.000000 9.987345 2.561531 0.737262 59.609457 -0.619454 -6.322343 9.759235 25.690045 3.129037 0.000000 0.000000 0.000000 
-0.001673 0.943403 -0.007270 -0.839633 6.996094 3.995490 3.604513 -0.331791 -3.589190 -0.411310 0.095828 -1.868869 2.961810 8.701113 7.039747 0.000000 0.000000 0.000000 -3.306935 0.482227 -5.872629 -0.781049 0.238140 3.590207 0.518628 -0.827094 5.454112 0.000000 0.000000 0.000000 3.118929 0.242877 -5.090094 3.897907 -1.220768 -7.616919 -5.017971 -3.820991 8.238443 1.180797 -0.099062 -9.168795 0.000000 0.000000 0.000000 8.040989 -19.767656 5.934804 -17.710758 -60.782447 4.876566 19.567464 -38.787087 -5.403903 0.000000 0.000000 0.000000 9.233089 3.471861 0.887914 59.551795 -0.676776 -6.378703 10.080381 24.972011 2.979138 0.000000 0.000000 0.000000 
-0.001048 0.943683 -0.007066 -1.193921 5.972487 4.173435 3.744642 -0.336540 -3.723026 0.234223 0.050190 -2.006079 3.013476 8.899654 7.585388 0.000000 0.000000 0.000000 -2.945331 0.530660 -6.254671 -0.928127 0.260169 3.555091 0.798007 -0.575330 6.245140 0.000000 0.000000 0.000000 2.955767 0.234879 -4.954443 4.275041 -1.367559 -7.877346 -4.498090 -5.082785 7.633297 -0.076922 0.602374 -8.621780 0.000000 0.000000 0.000000 11.563718 -21.074713 5.792673 -4.144972 -64.607747 -1.574946 19.647384 -27.732657 -3.730914 0.000000 0.000000 0.000000 8.200371 3.485803 0.701396 59.633962 -0.998769 -6.599244 10.645478 24.612595 2.935156 0.000000 0.000000 0.000000 
-0.000416 0.943908 -0.006535 -1.402917 4.855791 4.173936 3.968285 -0.318066 -3.496663 0.248253 0.061102 -2.358911 3.297619 9.284682 7.476835 0.000000 0.000000 0.000000 -2.745850 0.559648 -6.462677 -1.113483 0.299988 3.814755 1.114939 -0.034058 6.401556 0.000000 0.000000 0.000000 2.671853 0.227759 -4.823328 5.024524 -1.667133 -8.105016 -4.589468 -6.188685 7.513208 -0.777827 0.975617 -8.659590 0.000000 0.000000 0.000000 14.948436 -22.339651 5.489052 8.215712 -65.369345 -8.078732 17.553111 -18.094445 -2.048114 0.000000 0.000000 0.000000 7.461310 3.771273 0.680891 60.419561 -1.155276 -6.881006 10.061030 23.956215 2.642643 0.000000 0.000000 0.000000 
0.000088 0.944139 -0.005974 -1.593288 3.807186 4.492540 4.160847 -0.311836 -3.440116 0.261462 0.077878 -2.875844 3.758191 10.187277 8.174196 0.000000 0.000000 0.000000 -2.436580 0.613024 -6.925438 -1.475247 0.349384 3.728202 1.515940 0.529822 6.930916 0.000000 0.000000 0.000000 2.586487 0.230846 -4.862298 5.362327 -1.804075 -8.267310 -4.162760 -6.983236 7.432625 -1.333836 1.273828 -9.023464 0.000000 0.000000 0.000000 17.649714 -23.262257 5.118756 17.896429 -65.160955 -13.059501 14.356807 -11.662272 -0.985473 0.000000 0.000000 0.000000 6.300715 3.111266 0.375915 61.425568 -1.790645 -7.481071 10.413934 24.446845 2.688102 0.000000 0.000000 0.000000 
